<svg width="64" height="64" viewBox="0 0 64 64" fill="none" xmlns="http://www.w3.org/2000/svg">
<path fill-rule="evenodd" clip-rule="evenodd" d="M53.1064 55H60.6065L49.7409 32.7859C54.3314 31.0638 57.6066 26.5562 57.6066 21.2667C57.6066 14.492 52.234 9 45.6066 9H45.6065H38.1065H30.6064V9.00021L33.6065 15.1336V15.1334H42.6065H42.6065C46.7486 15.1334 50.1065 17.8794 50.1065 21.2668C50.1065 24.6541 46.7486 27.4001 42.6065 27.4001H42.6065H39.6064L53.1064 55Z" fill="#FBBF24"/>
<path fill-rule="evenodd" clip-rule="evenodd" d="M29.1156 35.7873L29.9977 33.9839H38.9782L41.2234 38.5742H27.7524L28.875 36.2791H14.7067V35.7873H29.1156ZM26.2557 41.6343L25.2668 43.6561H12.7607V44.1479H25.0262L24.0105 46.2245H44.9653L42.7202 41.6343H26.2557ZM21.1774 52.0168L20.2152 53.9839H48.7607L46.4621 49.2846H22.5137L21.4179 51.525H12.7607V52.0168H21.1774Z" fill="#374151"/>
<path fill-rule="evenodd" clip-rule="evenodd" d="M11.5167 55H4L26.5497 9L30 16.0384L11.5167 55Z" fill="#374151"/>
</svg>
