<svg width="192" height="36" viewBox="0 0 192 36" fill="none" xmlns="http://www.w3.org/2000/svg">
<path d="M45.7859 24C45.4079 24 45.2189 23.811 45.2189 23.433V12.768C45.2189 12.39 45.4079 12.201 45.7859 12.201C46.0499 12.201 46.2629 12.324 46.4249 12.57L50.8259 19.266L50.5739 19.302L54.9929 12.57C55.1489 12.324 55.3769 12.201 55.6769 12.201C56.0009 12.201 56.1629 12.39 56.1629 12.768V23.433C56.1629 23.811 55.9739 24 55.5959 24C55.2179 24 55.0289 23.811 55.0289 23.433V13.902L55.3709 14.019L51.3389 20.094C51.1769 20.34 50.9489 20.463 50.6549 20.463C50.4209 20.463 50.2229 20.34 50.0609 20.094L46.0289 14.019L46.3529 14.127V23.433C46.3529 23.811 46.1639 24 45.7859 24ZM59.3604 24C58.9824 24 58.7934 23.811 58.7934 23.433V12.768C58.7934 12.39 58.9824 12.201 59.3604 12.201H66.0114C66.3894 12.201 66.5784 12.39 66.5784 12.768C66.5784 13.146 66.3894 13.335 66.0114 13.335H59.9274V17.466H63.8874C64.2654 17.466 64.4544 17.655 64.4544 18.033C64.4544 18.411 64.2654 18.6 63.8874 18.6H59.9274V22.866H66.0114C66.3894 22.866 66.5784 23.055 66.5784 23.433C66.5784 23.811 66.3894 24 66.0114 24H59.3604ZM71.7908 24.009C71.6108 24.009 71.4698 23.961 71.3678 23.865C71.2718 23.763 71.2238 23.622 71.2238 23.442V13.335H67.5068C67.3268 13.335 67.1858 13.287 67.0838 13.191C66.9878 13.089 66.9398 12.948 66.9398 12.768C66.9398 12.588 66.9878 12.45 67.0838 12.354C67.1858 12.252 67.3268 12.201 67.5068 12.201H76.0748C76.2548 12.201 76.3928 12.252 76.4888 12.354C76.5908 12.45 76.6418 12.588 76.6418 12.768C76.6418 12.948 76.5908 13.089 76.4888 13.191C76.3928 13.287 76.2548 13.335 76.0748 13.335H72.3578V23.442C72.3578 23.616 72.3068 23.754 72.2048 23.856C72.1088 23.958 71.9708 24.009 71.7908 24.009ZM96.0269 24C94.7009 24 93.7289 23.691 93.1109 23.073C92.4929 22.455 92.1839 21.483 92.1839 20.157V16.044C92.1839 14.706 92.4929 13.731 93.1109 13.119C93.7289 12.501 94.6949 12.195 96.0089 12.201H98.1869C99.3029 12.201 100.14 12.432 100.698 12.894C101.256 13.35 101.568 14.085 101.634 15.099C101.658 15.285 101.622 15.429 101.526 15.531C101.43 15.633 101.286 15.684 101.094 15.684C100.746 15.684 100.548 15.495 100.5 15.117C100.452 14.433 100.251 13.965 99.8969 13.713C99.5489 13.461 98.9789 13.335 98.1869 13.335H96.0089C95.3369 13.329 94.8059 13.41 94.4159 13.578C94.0259 13.746 93.7439 14.028 93.5699 14.424C93.4019 14.82 93.3179 15.36 93.3179 16.044V20.157C93.3179 20.829 93.4019 21.363 93.5699 21.759C93.7439 22.155 94.0289 22.44 94.4249 22.614C94.8209 22.782 95.3549 22.866 96.0269 22.866H98.1869C98.9789 22.866 99.5489 22.74 99.8969 22.488C100.251 22.23 100.452 21.762 100.5 21.084C100.548 20.706 100.746 20.517 101.094 20.517C101.286 20.517 101.43 20.568 101.526 20.67C101.622 20.766 101.658 20.91 101.634 21.102C101.568 22.11 101.256 22.845 100.698 23.307C100.14 23.769 99.3029 24 98.1869 24H96.0269ZM107.334 24C106.008 24 105.036 23.691 104.418 23.073C103.8 22.455 103.491 21.483 103.491 20.157V16.035C103.491 14.697 103.8 13.722 104.418 13.11C105.042 12.492 106.011 12.189 107.325 12.201H109.494C110.826 12.201 111.798 12.51 112.41 13.128C113.028 13.74 113.337 14.712 113.337 16.044V20.157C113.337 21.483 113.028 22.455 112.41 23.073C111.798 23.691 110.826 24 109.494 24H107.334ZM107.334 22.866H109.494C110.172 22.866 110.706 22.782 111.096 22.614C111.492 22.44 111.774 22.155 111.942 21.759C112.116 21.363 112.203 20.829 112.203 20.157V16.044C112.203 15.372 112.116 14.838 111.942 14.442C111.774 14.046 111.492 13.764 111.096 13.596C110.706 13.422 110.172 13.335 109.494 13.335H107.325C106.653 13.329 106.119 13.41 105.723 13.578C105.333 13.746 105.051 14.028 104.877 14.424C104.709 14.82 104.625 15.357 104.625 16.035V20.157C104.625 20.829 104.709 21.363 104.877 21.759C105.051 22.155 105.336 22.44 105.732 22.614C106.128 22.782 106.662 22.866 107.334 22.866ZM116.233 24C115.855 24 115.666 23.811 115.666 23.433V12.768C115.666 12.39 115.855 12.201 116.233 12.201C116.497 12.201 116.71 12.324 116.872 12.57L121.273 19.266L121.021 19.302L125.44 12.57C125.596 12.324 125.824 12.201 126.124 12.201C126.448 12.201 126.61 12.39 126.61 12.768V23.433C126.61 23.811 126.421 24 126.043 24C125.665 24 125.476 23.811 125.476 23.433V13.902L125.818 14.019L121.786 20.094C121.624 20.34 121.396 20.463 121.102 20.463C120.868 20.463 120.67 20.34 120.508 20.094L116.476 14.019L116.8 14.127V23.433C116.8 23.811 116.611 24 116.233 24ZM129.808 24C129.43 24 129.241 23.811 129.241 23.433V12.768C129.241 12.39 129.43 12.201 129.808 12.201H134.02C135.07 12.201 135.868 12.474 136.414 13.02C136.96 13.566 137.233 14.364 137.233 15.414V15.954C137.233 16.998 136.96 17.796 136.414 18.348C135.868 18.894 135.07 19.167 134.02 19.167H130.375V23.433C130.375 23.811 130.186 24 129.808 24ZM130.375 18.033H134.02C134.758 18.033 135.289 17.871 135.613 17.547C135.937 17.217 136.099 16.686 136.099 15.954V15.414C136.099 14.682 135.937 14.154 135.613 13.83C135.289 13.5 134.758 13.335 134.02 13.335H130.375V18.033ZM142.327 24C141.001 24 140.029 23.691 139.411 23.073C138.793 22.455 138.484 21.483 138.484 20.157V16.035C138.484 14.697 138.793 13.722 139.411 13.11C140.035 12.492 141.004 12.189 142.318 12.201H144.487C145.819 12.201 146.791 12.51 147.403 13.128C148.021 13.74 148.33 14.712 148.33 16.044V20.157C148.33 21.483 148.021 22.455 147.403 23.073C146.791 23.691 145.819 24 144.487 24H142.327ZM142.327 22.866H144.487C145.165 22.866 145.699 22.782 146.089 22.614C146.485 22.44 146.767 22.155 146.935 21.759C147.109 21.363 147.196 20.829 147.196 20.157V16.044C147.196 15.372 147.109 14.838 146.935 14.442C146.767 14.046 146.485 13.764 146.089 13.596C145.699 13.422 145.165 13.335 144.487 13.335H142.318C141.646 13.329 141.112 13.41 140.716 13.578C140.326 13.746 140.044 14.028 139.87 14.424C139.702 14.82 139.618 15.357 139.618 16.035V20.157C139.618 20.829 139.702 21.363 139.87 21.759C140.044 22.155 140.329 22.44 140.725 22.614C141.121 22.782 141.655 22.866 142.327 22.866ZM153.665 23.991C152.609 23.991 151.811 23.763 151.271 23.307C150.737 22.851 150.434 22.137 150.362 21.165C150.35 20.979 150.395 20.835 150.497 20.733C150.599 20.631 150.74 20.58 150.92 20.58C151.1 20.58 151.235 20.628 151.325 20.724C151.421 20.82 151.481 20.958 151.505 21.138C151.547 21.78 151.73 22.227 152.054 22.479C152.378 22.731 152.915 22.857 153.665 22.857H156.257C157.085 22.857 157.655 22.701 157.967 22.389C158.285 22.071 158.444 21.504 158.444 20.688C158.444 19.86 158.282 19.29 157.958 18.978C157.64 18.66 157.073 18.501 156.257 18.501H153.872C152.786 18.501 151.988 18.246 151.478 17.736C150.968 17.22 150.713 16.422 150.713 15.342C150.713 14.262 150.965 13.47 151.469 12.966C151.979 12.456 152.774 12.201 153.854 12.201H156.248C157.238 12.201 157.985 12.417 158.489 12.849C158.999 13.275 159.29 13.944 159.362 14.856C159.38 15.036 159.338 15.18 159.236 15.288C159.134 15.39 158.99 15.441 158.804 15.441C158.63 15.441 158.495 15.393 158.399 15.297C158.303 15.195 158.246 15.057 158.228 14.883C158.18 14.301 158.006 13.899 157.706 13.677C157.406 13.449 156.92 13.335 156.248 13.335H153.854C153.086 13.335 152.558 13.482 152.27 13.776C151.988 14.064 151.847 14.586 151.847 15.342C151.847 16.098 151.991 16.626 152.279 16.926C152.573 17.22 153.104 17.367 153.872 17.367H156.257C157.391 17.367 158.228 17.637 158.768 18.177C159.308 18.711 159.578 19.548 159.578 20.688C159.578 21.822 159.308 22.656 158.768 23.19C158.234 23.724 157.397 23.991 156.257 23.991H153.665ZM162.48 24C162.102 24 161.913 23.811 161.913 23.433V12.768C161.913 12.39 162.102 12.201 162.48 12.201H169.131C169.509 12.201 169.698 12.39 169.698 12.768C169.698 13.146 169.509 13.335 169.131 13.335H163.047V17.466H167.007C167.385 17.466 167.574 17.655 167.574 18.033C167.574 18.411 167.385 18.6 167.007 18.6H163.047V22.866H169.131C169.509 22.866 169.698 23.055 169.698 23.433C169.698 23.811 169.509 24 169.131 24H162.48Z" fill="#374151"/>
<path d="M77.1258 23.946C76.7778 23.796 76.6728 23.547 76.8108 23.199L81.2118 12.642C81.3378 12.348 81.5508 12.201 81.8508 12.201H81.8958C82.1898 12.207 82.3938 12.354 82.5078 12.642L86.9358 23.199C87.0858 23.547 86.9838 23.796 86.6298 23.946C86.2818 24.084 86.0358 23.982 85.8918 23.64L84.7758 20.967H78.9708L77.8638 23.64C77.7258 23.988 77.4798 24.09 77.1258 23.946ZM79.4298 19.833H84.2988L81.8508 13.992L79.4298 19.833ZM179.258 24.027C179.108 24.117 178.964 24.144 178.826 24.108C178.694 24.078 178.58 23.991 178.484 23.847L175.586 19.167H172.544V23.433C172.544 23.811 172.355 24 171.977 24C171.599 24 171.41 23.811 171.41 23.433V12.768C171.41 12.39 171.599 12.201 171.977 12.201H176.189C177.239 12.201 178.037 12.474 178.583 13.02C179.129 13.566 179.402 14.364 179.402 15.414V15.954C179.402 16.872 179.189 17.598 178.763 18.132C178.343 18.666 177.722 18.993 176.9 19.113L179.456 23.253C179.642 23.571 179.576 23.829 179.258 24.027ZM172.544 18.033H176.189C176.927 18.033 177.458 17.871 177.782 17.547C178.106 17.217 178.268 16.686 178.268 15.954V15.414C178.268 14.682 178.106 14.154 177.782 13.83C177.458 13.5 176.927 13.335 176.189 13.335H172.544V18.033Z" fill="#FBBF24"/>
<path fill-rule="evenodd" clip-rule="evenodd" d="M29.7161 31H33.9661L27.809 18.4442C30.4102 17.4708 32.2662 14.9231 32.2662 11.9333C32.2662 8.10416 29.2217 5 25.4662 5H25.4661H21.2161H16.9661V5.00012L18.6661 8.46682V8.46672H23.7661H23.7661C26.1133 8.46673 28.0161 10.0188 28.0161 11.9334C28.0161 13.848 26.1133 15.4001 23.7661 15.4001H23.7661H22.0661L29.7161 31Z" fill="#FBBF24"/>
<path fill-rule="evenodd" clip-rule="evenodd" d="M2 31H6.04744L6.9642 28.9715H11.6038L11.0692 30.0535H26.9279L25.6509 27.4688H12.3462L11.7374 28.701H7.08644L8.92013 24.6437H13.742L13.1778 25.7858H24.8193L23.572 23.2612H14.4251L13.8757 24.3732H9.04238L10.8761 20.3158H15.8803L15.2566 21.5781H22.7405L21.4931 19.0535H16.504L16.0139 20.0453H10.9983L16 8.9782L14.1422 5L2 31Z" fill="#374151"/>
</svg>
